<svg width="45" height="45" viewBox="0 0 45 45" fill="none" xmlns="http://www.w3.org/2000/svg">
<g clip-path="url(#clip0_92_2444)">
<path d="M22.5 0C10.093 0 0 10.093 0 22.5C0 34.907 10.093 45 22.5 45C34.907 45 45 34.907 45 22.5C45 10.093 34.907 0 22.5 0Z" fill="#475AD7"/>
<path d="M32.3436 24.3748H24.3748V32.3436C24.3748 33.3788 23.535 34.2185 22.4999 34.2185C21.4648 34.2185 20.625 33.3788 20.625 32.3436V24.3748H12.6561C11.621 24.3748 10.7812 23.535 10.7812 22.4999C10.7812 21.4648 11.621 20.625 12.6561 20.625H20.625V12.6561C20.625 11.621 21.4648 10.7812 22.4999 10.7812C23.535 10.7812 24.3748 11.621 24.3748 12.6561V20.625H32.3436C33.3788 20.625 34.2185 21.4648 34.2185 22.4999C34.2185 23.535 33.3788 24.3748 32.3436 24.3748Z" fill="white"/>
</g>
<defs>
<clipPath id="clip0_92_2444">
<rect width="45" height="45" fill="white"/>
</clipPath>
</defs>
</svg>
