<svg width="189" height="188" viewBox="0 0 189 188" fill="none" xmlns="http://www.w3.org/2000/svg">
<path fill-rule="evenodd" clip-rule="evenodd" d="M28.4437 160.463C44.8125 142.581 68.3688 131.5 94.5 131.5C120.631 131.5 144.188 142.581 160.556 160.463C177.663 143.494 188.25 119.975 188.25 94C188.25 42.2562 146.244 0.25 94.5 0.25C42.7562 0.25 0.75 42.2562 0.75 94C0.75 119.975 11.3375 143.494 28.4437 160.463Z" fill="#333647"/>
<path d="M94.5 106.5C115.211 106.5 132 89.7107 132 69C132 48.2893 115.211 31.5 94.5 31.5C73.7893 31.5 57 48.2893 57 69C57 89.7107 73.7893 106.5 94.5 106.5Z" fill="#C4C4C4"/>
<path fill-rule="evenodd" clip-rule="evenodd" d="M28.4434 160.463C45.3809 177.331 68.7309 187.75 94.4996 187.75C120.268 187.75 143.618 177.331 160.556 160.463C144.187 142.581 120.631 131.5 94.4996 131.5C68.3684 131.5 44.8121 142.581 28.4434 160.463Z" fill="#C4C4C4"/>
</svg>
