<svg width="311" height="244" viewBox="0 0 311 244" fill="none" xmlns="http://www.w3.org/2000/svg">
<path d="M26.5879 101.434L25.4785 96.4521L32.7255 91.7883L53.4588 96.2587L26.5879 101.434ZM26.221 96.7571L27.092 100.666L50.1659 96.2219L32.8532 92.489L26.221 96.7571Z" fill="#31313B"/>
<path d="M54.0844 96.537L23.7281 89.1777L0 96.6665L54.0844 96.537Z" fill="#475AD7"/>
<path d="M31.0122 85.3896L54.0844 96.537L33.9378 72.1521L31.0122 85.3896Z" fill="#475AD7"/>
<path d="M31.0122 85.3896L32.5746 91.3225L54.0844 96.5371L31.0122 85.3896Z" fill="#333647"/>
<path d="M229.661 160.349C224.718 152.162 221.012 145.243 221.012 145.243L220.861 114.23C220.861 114.23 235.904 120.099 242.169 128.457C243.437 130.15 261.009 158.983 253.344 186.985L229.661 160.349Z" fill="white"/>
<path d="M254.745 175.458C254.734 175.458 254.722 175.458 254.71 175.457C254.482 175.438 254.312 175.237 254.331 175.008C254.929 167.813 253.855 158.846 251.307 149.76C248.903 141.184 245.451 133.511 241.837 128.707C236.137 121.13 225.497 117.027 223.048 116.159L221.435 145.15C221.914 146.04 225.46 152.586 230.017 160.135C230.136 160.331 230.073 160.587 229.876 160.705C229.679 160.824 229.424 160.761 229.306 160.564C224.414 152.461 220.684 145.509 220.647 145.439C220.611 145.372 220.594 145.296 220.598 145.22L222.249 115.565C222.256 115.437 222.322 115.319 222.428 115.246C222.534 115.173 222.667 115.153 222.79 115.192C222.92 115.234 235.908 119.442 242.501 128.208C246.175 133.091 249.676 140.864 252.108 149.535C254.682 158.715 255.765 167.786 255.159 175.077C255.141 175.294 254.959 175.458 254.745 175.458Z" fill="#333647"/>
<path d="M241.601 190.82C241.601 190.82 210.477 208.093 210.983 214.777C211.127 216.681 221.005 215.741 221.005 215.741L241.601 190.82Z" fill="#6672BB"/>
<path d="M231.758 139.042C231.593 139.042 231.437 138.943 231.372 138.78C231.352 138.73 229.327 133.723 225.816 130.377C222.509 127.224 217.482 124.321 217.431 124.292C217.232 124.177 217.164 123.923 217.278 123.724C217.392 123.525 217.646 123.457 217.845 123.571C217.897 123.601 223.008 126.553 226.39 129.775C230.035 133.25 232.06 138.26 232.144 138.472C232.229 138.685 232.125 138.927 231.912 139.012C231.862 139.032 231.809 139.042 231.758 139.042Z" fill="#333647"/>
<path d="M198.086 152.459C198.086 152.459 195.805 174.935 213.336 182.215C215.669 183.184 219.09 185.734 219.357 188.246C219.357 188.246 220.761 183.066 222.376 236.723L260.647 238.542C259.219 232.273 269.402 223.059 267.917 217.029C260.268 185.974 255.083 169.981 255.083 169.981L198.086 152.459Z" fill="white"/>
<path d="M221.312 215.785C221.087 215.785 220.903 215.606 220.897 215.381C220.89 215.238 220.883 215.097 220.876 214.956L220.858 214.603C220.672 210.824 220.478 207.291 220.283 204.102C220.283 204.099 220.283 204.096 220.283 204.093C219.805 196.297 219.409 192.081 219.16 189.917C219.026 188.756 218.948 188.325 218.947 188.321C218.945 188.311 218.944 188.3 218.943 188.29C218.813 187.066 217.756 185.61 216.045 184.295C215.618 183.966 215.18 183.666 214.742 183.404C214.602 183.319 214.467 183.239 214.331 183.163C214.254 183.121 214.177 183.08 214.099 183.038C214.089 183.034 214.08 183.03 214.071 183.025C213.827 182.895 213.596 182.783 213.384 182.69C213.32 182.661 213.266 182.638 213.213 182.616L213.181 182.603C213.174 182.6 213.168 182.597 213.161 182.594C213.154 182.591 213.147 182.588 213.14 182.584C213.058 182.551 212.978 182.517 212.9 182.482C212.89 182.478 212.881 182.473 212.872 182.469C211.682 181.957 210.548 181.359 209.501 180.692C208.973 180.357 208.452 179.994 207.955 179.615C206.72 178.679 205.576 177.606 204.556 176.428C204.547 176.417 204.539 176.407 204.531 176.395C202.642 174.212 201.107 171.606 199.969 168.648C199.964 168.637 199.959 168.626 199.955 168.614C199.933 168.557 199.912 168.5 199.892 168.443C199.882 168.419 199.873 168.394 199.864 168.369L199.856 168.348C199.823 168.261 199.79 168.17 199.757 168.081C199.475 167.301 199.215 166.487 198.985 165.66C198.959 165.57 198.935 165.479 198.911 165.388C198.892 165.322 198.873 165.248 198.854 165.175L198.839 165.118C198.678 164.503 198.532 163.872 198.403 163.242C198.4 163.234 198.398 163.226 198.396 163.217C198.312 162.806 198.231 162.376 198.157 161.937L198.137 161.818C198.128 161.767 198.12 161.716 198.111 161.666L198.094 161.558C198.085 161.497 198.075 161.436 198.067 161.376C197.954 160.657 197.86 159.924 197.782 159.143C197.719 158.515 197.67 157.895 197.638 157.298C197.477 154.4 197.664 152.497 197.672 152.418C197.695 152.19 197.9 152.023 198.127 152.046C198.355 152.069 198.522 152.273 198.499 152.501C198.497 152.52 198.311 154.425 198.467 157.253C198.499 157.837 198.547 158.445 198.609 159.06C198.686 159.826 198.777 160.544 198.889 161.254C198.897 161.317 198.906 161.371 198.915 161.426L198.932 161.531C198.939 161.575 198.948 161.63 198.957 161.684L198.976 161.798C199.048 162.219 199.125 162.633 199.206 163.028C199.208 163.037 199.21 163.045 199.212 163.054C199.34 163.677 199.485 164.3 199.642 164.907L199.658 164.964C199.676 165.033 199.694 165.101 199.713 165.169C199.738 165.264 199.76 165.349 199.785 165.437C200.01 166.244 200.263 167.038 200.539 167.799C200.571 167.887 200.603 167.973 200.635 168.059L200.648 168.093C200.651 168.104 200.655 168.114 200.659 168.124C200.663 168.134 200.668 168.145 200.672 168.156C200.687 168.2 200.704 168.244 200.72 168.288C200.725 168.298 200.729 168.308 200.733 168.319C201.843 171.213 203.341 173.757 205.185 175.881C205.194 175.891 205.202 175.902 205.21 175.913C206.186 177.037 207.278 178.059 208.458 178.954C208.938 179.319 209.439 179.668 209.948 179.992C210.966 180.64 212.071 181.222 213.231 181.719C213.243 181.724 213.255 181.729 213.266 181.736C213.331 181.764 213.397 181.792 213.464 181.819C213.469 181.821 213.474 181.823 213.479 181.826C213.495 181.832 213.51 181.838 213.525 181.846L213.534 181.85C213.597 181.876 213.66 181.903 213.725 181.933C213.944 182.028 214.19 182.148 214.448 182.284C214.458 182.289 214.469 182.294 214.478 182.299C214.563 182.344 214.646 182.389 214.734 182.437C214.883 182.52 215.027 182.605 215.173 182.694C215.635 182.97 216.1 183.289 216.552 183.637C217.66 184.488 219.549 186.21 219.768 188.188C219.784 188.278 219.861 188.737 219.986 189.822C220.236 191.998 220.634 196.232 221.113 204.05C221.113 204.053 221.113 204.056 221.113 204.059C221.308 207.25 221.502 210.784 221.688 214.563L221.706 214.914C221.713 215.058 221.721 215.203 221.728 215.349C221.728 215.356 221.728 215.362 221.728 215.369C221.728 215.598 221.542 215.785 221.312 215.785ZM214.089 183.034C214.09 183.034 214.09 183.034 214.091 183.035C214.091 183.034 214.09 183.034 214.089 183.034Z" fill="#333647"/>
<path d="M266.477 218.846C266.291 218.846 266.121 218.72 266.074 218.531C264.383 211.774 263.323 206.126 262.386 201.143C261.482 196.328 260.628 191.78 259.373 187.142C258.887 185.345 258.43 183.66 258.005 182.104C256.916 178.121 255.858 174.294 254.859 170.727C254.856 170.716 254.852 170.705 254.85 170.693C254.74 170.3 254.682 170.095 254.682 170.095C254.619 169.874 254.747 169.644 254.968 169.581C255.19 169.519 255.419 169.647 255.482 169.868C255.482 169.868 255.541 170.076 255.652 170.477C255.653 170.481 255.654 170.484 255.656 170.488C256.656 174.06 257.716 177.895 258.807 181.885C259.232 183.442 259.689 185.127 260.176 186.924C261.439 191.594 262.296 196.158 263.203 200.989C264.137 205.961 265.196 211.596 266.88 218.329C266.936 218.552 266.8 218.777 266.578 218.833C266.544 218.842 266.51 218.846 266.477 218.846Z" fill="#333647"/>
<path d="M261.545 190.069C261.159 188.914 260.862 188.021 260.67 187.443C260.626 187.314 260.588 187.2 260.557 187.102C259.411 183.634 258.651 181.753 258.407 181.995C257.937 182.459 256.985 184.19 255.458 186.65C255.28 186.937 255.093 187.234 254.9 187.541C254.409 188.315 253.867 189.148 253.273 190.025C248.756 196.689 241.164 205.907 229.487 211.603C227.029 212.802 224.514 213.707 222.156 214.349H222.155C221.86 214.432 221.564 214.507 221.273 214.583C215.893 215.926 211.537 215.867 210.984 214.778L210.987 214.801L210.99 214.836V214.839L213.065 236.749C216.789 237.442 220.757 238.273 225.02 239.247C236.705 241.92 247.202 242.324 256.325 241.133C264.13 240.113 270.933 237.927 276.615 234.992C270.963 218.161 264.184 197.962 261.545 190.069Z" fill="#333647"/>
<path d="M228.441 141.212C228.363 141.212 228.284 141.19 228.214 141.144C228.022 141.019 227.968 140.761 228.094 140.569C229.56 138.328 232.064 137.902 233.133 137.72C233.271 137.697 233.425 137.671 233.49 137.653C233.649 137.556 233.86 137.576 233.998 137.713C234.161 137.875 234.162 138.138 234.001 138.301C233.864 138.439 233.691 138.468 233.272 138.54C232.229 138.717 230.057 139.087 228.789 141.024C228.709 141.146 228.577 141.212 228.441 141.212Z" fill="#333647"/>
<path d="M233.607 161.953L180.362 172.081C177.484 172.629 174.678 170.531 174.096 167.396L154.753 63.3019C154.171 60.1672 156.032 57.1821 158.91 56.6345L212.154 46.5067C215.033 45.9592 217.838 48.0565 218.421 51.1913L237.764 155.286C238.346 158.421 236.485 161.406 233.607 161.953Z" fill="#333647"/>
<path d="M230.764 162.4L176.818 172.661C174.134 173.172 171.517 171.216 170.974 168.292L151.523 63.6146C150.98 60.691 152.715 57.9069 155.4 57.3962L209.346 47.1349C212.031 46.6242 214.647 48.5803 215.191 51.5041L234.641 156.182C235.185 159.105 233.449 161.889 230.764 162.4Z" fill="white"/>
<path d="M223.513 96.2942L223.503 96.2424L223.5 96.2282L223.497 96.203L223.489 96.1559L223.486 96.148L223.484 96.1433L222.963 94.7134L223.282 96.4452C223.351 96.464 223.42 96.4829 223.489 96.5034C223.492 96.5049 223.495 96.5049 223.499 96.5049C223.516 96.5095 223.533 96.5144 223.549 96.519C223.55 96.519 223.552 96.5205 223.554 96.5205L223.513 96.2942ZM223.513 96.2942L223.503 96.2424L223.5 96.2282L223.497 96.203L223.489 96.1559L223.486 96.148L223.484 96.1433L222.963 94.7134L223.282 96.4452C223.351 96.464 223.42 96.4829 223.489 96.5034C223.492 96.5049 223.495 96.5049 223.499 96.5049C223.516 96.5095 223.533 96.5144 223.549 96.519C223.55 96.519 223.552 96.5205 223.554 96.5205L223.513 96.2942ZM234.891 156.133L232.669 144.176V144.175L232.586 143.725L232.474 143.122L231.615 138.497L231.549 138.141V138.139L227.741 117.647L227.699 117.419L226.806 112.613C226.805 112.612 226.805 112.612 226.805 112.612L225.755 106.96L224.019 97.6129L224.016 97.5988L223.829 96.5977V96.5962L223.112 92.7368L223.111 92.7321V92.7274L223.109 92.7211L222.26 88.1593L220.233 77.2491L220.156 76.8359L215.441 51.4562C214.961 48.8776 212.939 47.0139 210.635 46.7971H210.634C210.632 46.7971 210.632 46.7956 210.632 46.7956H210.629L210.626 46.7971C210.191 46.7578 209.743 46.7767 209.295 46.8614L155.35 57.1228C152.531 57.6601 150.702 60.5925 151.273 63.6614L162.4 123.543L164.78 136.354L165.605 140.791L168.291 155.243V155.244L169.091 159.551L169.231 160.307L170.081 164.874V164.875L170.723 168.339C171.294 171.409 174.052 173.469 176.869 172.935L178.837 172.559L200.344 168.468H200.346L222.82 164.193L230.815 162.672C231.068 162.623 231.312 162.557 231.548 162.471H231.549C231.728 162.407 231.904 162.333 232.072 162.246C232.074 162.246 232.074 162.245 232.076 162.245H232.077L232.08 162.243C234.156 161.199 235.37 158.713 234.891 156.133ZM231.147 162.019C231.005 162.063 230.862 162.098 230.714 162.126L222.872 163.618L200.149 167.941L179.4 171.888L178.457 172.067H178.454L176.767 172.388C174.224 172.872 171.738 171.013 171.224 168.244L170.53 164.507L169.725 160.178L169.435 158.614C169.435 158.614 169.435 158.614 169.435 158.613L168.691 154.618L166.031 140.295L165.181 135.719V135.718L162.894 123.413L151.774 63.5667C151.258 60.7979 152.908 58.1517 155.451 57.6693L157.138 57.3471H157.143L209.397 47.4065C211.938 46.9241 214.425 48.7814 214.941 51.5519L219.63 76.7871L219.715 77.2381V77.2396L221.713 88.0005L221.729 88.0806L221.734 88.0995L222.96 94.7009L222.963 94.7134L223.282 96.4452V96.4467L225.26 107.09L226.198 112.137V112.139L227.124 117.12L227.172 117.382V117.384L230.71 136.418V136.421L231.129 138.672L231.949 143.089V143.091L232.058 143.672L232.092 143.854L234.391 156.229C234.875 158.837 233.439 161.336 231.147 162.019ZM223.513 96.2942L223.503 96.2424L223.5 96.2282L223.497 96.203L223.489 96.1559L223.486 96.148L223.484 96.1433L222.963 94.7134L223.282 96.4452C223.351 96.464 223.42 96.4829 223.489 96.5034C223.492 96.5049 223.495 96.5049 223.499 96.5049C223.516 96.5095 223.533 96.5144 223.549 96.519C223.55 96.519 223.552 96.5205 223.554 96.5205L223.513 96.2942Z" fill="#31313B"/>
<path d="M176.059 163.528C175.529 163.528 175.004 163.365 174.545 163.051C173.885 162.6 173.42 161.872 173.268 161.054L155.529 65.5896C155.227 63.9654 156.204 62.4115 157.706 62.1257L208.892 52.3896C209.581 52.2586 210.29 52.412 210.89 52.8216C211.549 53.2722 212.015 54 212.167 54.8186L229.905 150.283C230.207 151.907 229.231 153.461 227.728 153.747L176.542 163.483C176.382 163.513 176.22 163.528 176.059 163.528ZM209.374 52.8576C209.245 52.8576 209.116 52.8697 208.988 52.8941L157.803 62.6303C156.577 62.8632 155.784 64.1486 156.034 65.4955L173.773 160.96C173.9 161.645 174.287 162.252 174.835 162.626C175.32 162.958 175.893 163.083 176.447 162.978L227.632 153.242C228.857 153.008 229.651 151.723 229.401 150.376L211.662 54.9122C211.534 54.227 211.147 53.6195 210.6 53.2455C210.227 52.9904 209.802 52.8576 209.374 52.8576Z" fill="#333647"/>
<path d="M181.966 55.4774C181.857 54.8945 182.203 54.3395 182.739 54.2376C183.274 54.1357 183.795 54.5257 183.904 55.1086C184.012 55.6915 183.666 56.2465 183.131 56.3484C182.596 56.4502 182.074 56.0602 181.966 55.4774Z" fill="#31313B"/>
<path d="M208.14 163.603L198.329 165.469C197.669 165.594 197.019 165.109 196.885 164.389L196.683 163.299C196.549 162.579 196.98 161.888 197.641 161.762L207.451 159.896C208.112 159.77 208.762 160.256 208.895 160.976L209.098 162.066C209.232 162.785 208.801 163.477 208.14 163.603Z" fill="white"/>
<path d="M209.347 162.018L209.145 160.927C208.983 160.057 208.2 159.471 207.4 159.622L198.478 161.319L197.589 161.488C196.789 161.642 196.27 162.474 196.432 163.346L196.635 164.436C196.796 165.309 197.579 165.893 198.38 165.741L199.384 165.549L208.189 163.875C208.99 163.723 209.509 162.89 209.347 162.018ZM197.134 164.341L196.932 163.25C196.826 162.68 197.166 162.134 197.691 162.034L198.566 161.867L207.501 160.167C208.024 160.068 208.538 160.451 208.645 161.023L208.847 162.112C208.953 162.684 208.613 163.229 208.088 163.33L199.24 165.011L198.277 165.195C197.753 165.296 197.241 164.913 197.134 164.341Z" fill="#31313B"/>
<g opacity="0.2">
<path d="M197.154 54.8834L160.422 90.5167L155.781 65.5424C155.505 64.0542 156.388 62.6378 157.754 62.3779L197.154 54.8834Z" fill="#A2D2EC"/>
</g>
<g opacity="0.2">
<path d="M222.69 112.859L229.652 150.329C229.929 151.816 229.045 153.234 227.679 153.494L176.494 163.23C175.128 163.49 173.796 162.494 173.52 161.007L172.902 157.683L222.69 112.859Z" fill="#A2D2EC"/>
</g>
<g opacity="0.2">
<path d="M211.914 54.865L214.005 66.1153L166.026 120.674L162.275 100.488L207.689 52.8796L208.94 52.6417C210.305 52.3819 211.637 53.3769 211.914 54.865Z" fill="#A2D2EC"/>
</g>
<path d="M240.499 182.527C240.499 182.527 251.428 190.763 252.647 186.007C256.833 169.679 246.482 158.23 240.116 150.698C235.988 145.813 210.774 125.08 208.044 131.058C206.388 134.687 212.975 142.298 217.96 149.136C221.188 153.563 223.394 157.924 223.44 159.798C223.536 163.7 222.448 167.947 223.656 170.669C228.225 180.964 240.499 182.527 240.499 182.527Z" fill="white"/>
<path d="M240.499 182.943C240.477 182.943 240.455 182.941 240.433 182.937C240.01 182.87 230.02 181.197 225.044 174.176C222.633 170.773 221.836 166.687 222.678 162.032C223.675 156.516 219.064 151.017 214.605 145.698C210.222 140.47 206.082 135.533 207.651 130.924C207.893 130.214 208.42 129.756 209.176 129.599C215.208 128.344 237.389 147.157 240.961 151.085C241.115 151.255 241.103 151.518 240.933 151.672C240.764 151.827 240.5 151.814 240.346 151.644C238.539 149.657 232.332 144.147 225.379 138.97C217.328 132.976 211.634 129.937 209.345 130.412C208.874 130.51 208.586 130.758 208.438 131.192C207.02 135.357 211.014 140.121 215.242 145.164C219.824 150.629 224.563 156.28 223.496 162.18C222.696 166.607 223.445 170.481 225.723 173.696C230.498 180.434 240.465 182.1 240.565 182.116C240.791 182.153 240.946 182.366 240.909 182.593C240.876 182.797 240.7 182.943 240.499 182.943Z" fill="#333647"/>
<path d="M172.818 77.8507L171.496 70.704C171.427 70.3363 171.074 70.0927 170.706 70.1603L170.298 70.2357C169.93 70.3032 169.686 70.6569 169.754 71.0261L170.483 74.964C170.535 75.2437 170.186 75.415 169.996 75.2028L166.477 71.2728C166.319 71.0967 166.081 71.0151 165.849 71.0576L165.143 71.1896C164.774 71.2571 164.53 71.6108 164.6 71.98L165.921 79.1266C165.989 79.4943 166.342 79.738 166.712 79.6703L167.125 79.5933C167.492 79.5258 167.736 79.1721 167.669 78.8029L166.861 74.4406C166.832 74.2851 167.027 74.1893 167.134 74.3071L170.939 78.5577C171.097 78.7337 171.335 78.8154 171.567 78.7714L172.274 78.6411C172.642 78.5736 172.886 78.2199 172.818 77.8507Z" fill="#333647"/>
<path d="M180.029 76.518L180.017 76.4489C179.947 76.0795 179.594 75.836 179.226 75.9037L176.622 76.386C176.253 76.4535 175.899 76.21 175.832 75.8423L175.79 75.6098L175.659 74.9043C175.59 74.5366 175.834 74.1814 176.203 74.1139L177.597 73.8562L178.224 73.7398C178.592 73.6723 178.835 73.3187 178.768 72.9495L178.761 72.9149C178.752 72.8646 178.736 72.8159 178.717 72.7704V72.7689C178.593 72.4861 178.288 72.3132 177.971 72.3714L175.95 72.7454C175.581 72.8129 175.227 72.5694 175.158 72.2017L175.032 71.515C174.963 71.1457 175.207 70.7921 175.576 70.7246L178.167 70.2454C178.537 70.1762 178.779 69.8227 178.711 69.4534L178.697 69.3732C178.628 69.0038 178.274 68.7603 177.905 68.8295L173.566 69.6309C173.197 69.7 172.955 70.0536 173.023 70.4213L174.256 77.0965L174.344 77.5696C174.412 77.9373 174.765 78.1808 175.134 78.1133L179.486 77.3087C179.853 77.2392 180.097 76.8857 180.029 76.518Z" fill="#333647"/>
<path d="M188.266 66.9121L187.909 66.9796C187.589 67.0378 187.356 67.3175 187.355 67.6428L187.339 71.3294C187.337 71.7836 186.715 71.9108 186.534 71.4944L185.037 68.0452C184.911 67.7545 184.603 67.591 184.292 67.6476L183.927 67.7152H183.926L183.872 67.7246C183.585 67.7781 183.366 68.0107 183.326 68.2982C183.322 68.3185 183.321 68.3407 183.319 68.3627L183.148 72.1151C183.128 72.5693 182.501 72.6713 182.336 72.2486L181.492 70.077L181.001 68.8167C180.882 68.5134 180.566 68.3375 180.246 68.3955L179.887 68.463C179.46 68.5416 179.216 68.9942 179.386 69.3949L180.205 71.3246L182.293 76.2477C182.417 76.5416 182.729 76.7081 183.041 76.6501L183.74 76.5212C184.048 76.4647 184.276 76.2039 184.295 75.8927L184.44 73.2795C184.481 72.5693 185.445 72.3916 185.738 73.0392L186.607 74.9798L186.808 75.4276C186.935 75.7137 187.243 75.874 187.55 75.8173L188.25 75.6868C188.563 75.6303 188.793 75.3615 188.805 75.0441L188.892 72.5848L189.068 67.6035C189.083 67.1698 188.693 66.8334 188.266 66.9121Z" fill="#333647"/>
<path d="M197.347 71.6922C197.283 71.3418 197.165 71.0401 196.994 70.7871C196.822 70.5341 196.599 70.3188 196.323 70.1397C196.048 69.9622 195.718 69.8192 195.334 69.7092C194.949 69.5992 194.514 69.5144 194.025 69.4562C193.444 69.3949 192.993 69.2975 192.672 69.1624C192.542 69.1073 192.435 69.0398 192.349 68.9612C192.223 68.8465 192.146 68.705 192.115 68.5385C192.089 68.4033 192.094 68.2698 192.127 68.1393C192.162 68.0088 192.226 67.8878 192.32 67.7779C192.415 67.6679 192.54 67.5721 192.701 67.4904C192.861 67.4087 193.054 67.3474 193.284 67.3049C193.521 67.2609 193.731 67.2531 193.919 67.2814C193.928 67.2829 193.937 67.2846 193.945 67.2861H193.947C194.121 67.3144 194.272 67.3709 194.401 67.4526C194.538 67.5406 194.649 67.6553 194.732 67.7951C194.739 67.8046 194.743 67.8139 194.75 67.8234C194.894 68.0811 195.179 68.2256 195.469 68.1708L195.873 68.0969C196.327 68.0121 196.581 67.5014 196.345 67.1039C196.313 67.0474 196.277 66.9939 196.241 66.942C196.033 66.6482 195.773 66.4108 195.458 66.2286C195.348 66.1658 195.235 66.1093 195.116 66.0605H195.114C194.887 65.9693 194.64 65.9033 194.373 65.8656C193.964 65.806 193.526 65.8201 193.056 65.9065C192.597 65.9913 192.187 66.1265 191.825 66.3118C191.464 66.4972 191.164 66.7188 190.925 66.9749C190.685 67.2326 190.515 67.5217 190.416 67.8439C190.317 68.1661 190.299 68.5023 190.366 68.8558C190.433 69.2252 190.568 69.5331 190.769 69.7814C190.889 69.9307 191.027 70.0642 191.183 70.1836C191.286 70.2621 191.397 70.3329 191.516 70.3989C191.813 70.564 192.148 70.6913 192.52 70.784C192.892 70.8751 193.285 70.9473 193.695 70.9993C194.057 71.0448 194.356 71.0966 194.59 71.1533C194.822 71.2115 195.009 71.279 195.151 71.3577C195.292 71.4362 195.394 71.5305 195.459 71.6405C195.523 71.7505 195.57 71.8809 195.597 72.027C195.622 72.1637 195.619 72.2957 195.589 72.4246C195.558 72.5519 195.496 72.6681 195.404 72.7749C195.311 72.8803 195.185 72.9729 195.027 73.0514C194.869 73.1316 194.678 73.1913 194.453 73.2338C194.2 73.2793 193.966 73.2966 193.751 73.2841C193.535 73.2731 193.345 73.2244 193.179 73.1411C193.014 73.0563 192.872 72.9338 192.758 72.7702C192.725 72.7216 192.695 72.6712 192.666 72.6147C192.531 72.3429 192.234 72.192 191.936 72.247L191.533 72.3209C191.085 72.4042 190.831 72.9054 191.056 73.3014C191.057 73.3046 191.059 73.3078 191.06 73.3093C191.199 73.5545 191.368 73.765 191.568 73.941C191.767 74.117 191.989 74.2615 192.236 74.3715C192.481 74.483 192.74 74.5664 193.014 74.6199C193.285 74.6734 193.567 74.7 193.856 74.6969C194.143 74.6937 194.428 74.6654 194.708 74.6135C195.174 74.527 195.586 74.3967 195.946 74.2192C196.304 74.0432 196.599 73.8295 196.831 73.5796C197.062 73.3298 197.222 73.0469 197.315 72.7279C197.405 72.4104 197.416 72.0647 197.347 71.6922Z" fill="#333647"/>
<path d="M203.093 114.012L173.577 119.519C173.222 119.585 172.877 119.348 172.81 118.993C172.744 118.637 172.981 118.292 173.336 118.226L202.851 112.72C203.207 112.653 203.552 112.89 203.618 113.245C203.685 113.601 203.448 113.946 203.093 114.012Z" fill="#333647"/>
<path d="M205.612 126.37L176.112 131.96C175.757 132.028 175.411 131.792 175.344 131.437C175.276 131.081 175.512 130.735 175.867 130.668L205.367 125.078C205.722 125.011 206.068 125.246 206.135 125.602C206.202 125.957 205.967 126.303 205.612 126.37Z" fill="#333647"/>
<path d="M191.85 120.521L174.538 124.056C174.255 124.114 173.976 123.93 173.919 123.646L173.866 123.388C173.808 123.104 173.992 122.825 174.275 122.768L191.587 119.232C191.87 119.174 192.149 119.359 192.207 119.642L192.26 119.901C192.317 120.184 192.133 120.463 191.85 120.521Z" fill="#333647"/>
<path d="M206.543 117.804L195.364 119.889C195.009 119.956 194.663 119.719 194.597 119.364C194.531 119.008 194.767 118.663 195.123 118.597L206.302 116.511C206.657 116.445 207.002 116.681 207.069 117.037C207.135 117.393 206.898 117.738 206.543 117.804Z" fill="#333647"/>
<path d="M194.028 132.472L176.668 135.762C176.385 135.816 176.108 135.627 176.054 135.343L176.005 135.084C175.951 134.8 176.14 134.523 176.424 134.47L193.783 131.18C194.067 131.126 194.344 131.315 194.398 131.599L194.447 131.858C194.5 132.142 194.312 132.418 194.028 132.472Z" fill="#333647"/>
<path d="M201.386 140.1L177.948 144.216C177.619 144.273 177.302 144.051 177.245 143.722L177.227 143.624C177.17 143.295 177.392 142.978 177.721 142.92L201.158 138.804C201.488 138.746 201.804 138.968 201.862 139.298L201.879 139.396C201.937 139.725 201.715 140.042 201.386 140.1Z" fill="#333647"/>
<path d="M195.947 144.952L178.462 148.023C178.2 148.069 177.948 147.892 177.903 147.63L177.842 147.287C177.796 147.025 177.973 146.774 178.235 146.728L195.72 143.657C195.982 143.611 196.234 143.788 196.28 144.05L196.34 144.392C196.386 144.654 196.209 144.906 195.947 144.952Z" fill="#333647"/>
<path d="M203.716 78.0357L170.434 94.2325L179.088 112.015L212.37 95.8185L203.716 78.0357Z" fill="white"/>
<path d="M178.978 112.314L170.129 94.13L170.33 94.0322L203.812 77.7382L212.661 95.9223L212.46 96.0201L178.978 112.314ZM170.726 94.3361L179.184 111.717L212.064 95.716L203.605 78.3354L170.726 94.3361Z" fill="#333647"/>
<path d="M179.275 112.127L178.887 111.904L190.093 92.3525L212.394 95.5982L212.33 96.0403L190.33 92.8385L179.275 112.127Z" fill="#333647"/>
<path d="M170.5 94.269L192.296 96.7657L203.781 78.0726L170.5 94.269Z" fill="white"/>
<path d="M192.224 96.9534C192.216 96.9534 192.207 96.953 192.199 96.9519L170.402 94.4552C170.303 94.4439 170.224 94.3689 170.207 94.2709C170.191 94.1731 170.24 94.0758 170.33 94.0324L203.611 77.8361C203.7 77.7924 203.807 77.8134 203.874 77.8869C203.941 77.9604 203.951 78.0692 203.899 78.1538L192.414 96.8469C192.374 96.9136 192.301 96.9534 192.224 96.9534ZM171.215 94.0985L192.108 96.4918L203.117 78.5733L171.215 94.0985Z" fill="#333647"/>
<path d="M205.234 82.3306C207.259 81.4917 208.221 79.1698 207.382 77.1445C206.543 75.1192 204.221 74.1575 202.196 74.9965C200.171 75.8354 199.209 78.1573 200.048 80.1826C200.887 82.2078 203.209 83.1695 205.234 82.3306Z" fill="#D75F4B"/>
<path d="M146.861 127.3C146.861 127.3 140.935 129.633 136.654 130.804L138.18 117.421L146.861 127.3Z" fill="white"/>
<path d="M146.861 127.3C149.178 126.407 152.727 121.705 149.206 115.921C147.954 113.864 139.219 109.7 138.032 120.456C137.066 129.21 143.645 128.539 146.861 127.3Z" fill="white"/>
<path d="M143.169 128.217C141.909 128.217 140.683 127.93 139.72 127.188C138.115 125.952 137.483 123.68 137.841 120.435C138.41 115.282 140.688 113.721 142.5 113.319C145.375 112.681 148.627 114.603 149.369 115.822C151.305 119.002 151.032 121.665 150.462 123.339C149.71 125.548 148.146 127.01 146.93 127.478C145.81 127.91 144.472 128.217 143.169 128.217ZM143.717 113.573C143.337 113.573 142.957 113.61 142.583 113.693C140.16 114.231 138.652 116.577 138.222 120.477C137.879 123.579 138.462 125.735 139.954 126.885C141.155 127.81 143.582 128.358 146.792 127.121C147.889 126.698 149.392 125.296 150.1 123.215C150.643 121.619 150.901 119.075 149.042 116.021C148.445 115.04 146.092 113.573 143.717 113.573Z" fill="#31313B"/>
<path d="M147.326 142.272C149.336 140.816 152.234 134.132 147.349 129.443C145.611 127.775 138.086 126.583 136.849 135.303C135.613 144.023 144.534 144.295 147.326 142.272Z" fill="white"/>
<path d="M143.45 143.502C142.061 143.502 140.603 143.188 139.398 142.462C137.819 141.51 136.062 139.491 136.66 135.276C137.301 130.749 139.577 129.06 141.373 128.44C143.872 127.576 146.526 128.388 147.482 129.305C149.963 131.686 150.329 134.428 150.199 136.308C150.052 138.44 148.979 141.311 147.438 142.427C146.514 143.097 145.027 143.502 143.45 143.502ZM143.687 128.48C142.859 128.48 142.072 128.604 141.498 128.802C139.803 129.387 137.653 130.995 137.039 135.33C136.471 139.337 138.116 141.242 139.596 142.134C142.165 143.682 145.764 143.168 147.213 142.117C148.352 141.293 149.637 138.884 149.817 136.282C149.941 134.483 149.591 131.861 147.217 129.581C146.386 128.784 144.986 128.48 143.687 128.48Z" fill="#31313B"/>
<path d="M145.261 155.544C145.261 155.544 139.335 157.877 135.054 159.048L136.58 145.665L145.261 155.544Z" fill="white"/>
<path d="M114.052 112.582C114.052 112.582 141.562 92.4269 147.848 94.5821C150.036 95.3324 151.662 98.6247 146.906 103.917C139.206 112.483 124.788 125.89 124.788 125.89L114.052 112.582Z" fill="white"/>
<path d="M124.787 126.081C124.783 126.081 124.778 126.081 124.774 126.081C124.721 126.077 124.672 126.052 124.638 126.01L113.903 112.703C113.87 112.662 113.855 112.61 113.862 112.558C113.869 112.506 113.896 112.459 113.939 112.428C114.008 112.378 120.91 107.33 128.491 102.612C138.712 96.2501 145.246 93.4873 147.91 94.4013C148.979 94.7679 149.759 95.6216 150.051 96.7436C150.415 98.1452 150.19 100.55 147.048 104.045C139.431 112.519 125.062 125.896 124.918 126.03C124.882 126.063 124.836 126.081 124.787 126.081ZM114.327 112.619L124.807 125.61C126.365 124.156 139.577 111.783 146.763 103.789C149.125 101.16 150.161 98.6924 149.68 96.8398C149.422 95.8444 148.731 95.0877 147.785 94.7634C141.912 92.751 116.605 110.966 114.327 112.619Z" fill="#31313B"/>
<path d="M86.5454 209.771C86.5454 209.771 98.8121 218.711 97.3065 222.827C95.801 226.943 82.8599 216.05 82.8599 216.05L86.5454 209.771Z" fill="#31313C"/>
<path d="M64.9384 161.257C64.9384 161.257 61.1836 170.281 55.8186 184.068C50.4536 197.856 45.3779 208.055 45.3779 208.055L91.66 226.624L108.338 171.856L64.9384 161.257Z" fill="white"/>
<path d="M91.6598 226.973C91.6158 226.973 91.5717 226.965 91.5299 226.948L45.2478 208.38C45.1574 208.343 45.0863 208.271 45.0516 208.18C45.017 208.089 45.022 207.987 45.0654 207.9C45.116 207.798 50.196 197.555 55.4932 183.942C60.7958 170.314 64.8861 159.279 64.9268 159.169C64.9601 159.079 65.0289 159.007 65.1171 158.97C65.2052 158.932 65.305 158.932 65.393 158.971L105.817 176.519C105.978 176.588 106.062 176.765 106.014 176.933L91.996 226.719C91.9692 226.814 91.903 226.893 91.8141 226.937C91.7656 226.961 91.7127 226.973 91.6598 226.973ZM45.8573 207.872L91.4292 226.155L105.26 177.038L65.4531 159.758C64.7191 161.732 60.9237 171.911 56.1439 184.195C51.3743 196.452 46.7792 205.986 45.8573 207.872Z" fill="#31313C"/>
<path d="M69.5997 166.763C69.5997 166.763 65.195 177.38 62.2871 174.457C52.302 164.419 54.7416 149.019 58.618 141.698C63.2279 132.991 66.6525 112.512 71.1747 115.677C73.9197 117.599 72.3925 125.915 71.6954 132.989C71.244 137.568 71.5043 141.666 72.2691 143.042C73.8616 145.907 76.4585 148.519 76.7433 151.004C77.8203 160.404 69.5997 166.763 69.5997 166.763Z" fill="white"/>
<path d="M62.2864 174.806C62.1973 174.806 62.1083 174.772 62.0401 174.704C55.8866 168.581 54.8213 160.741 55.0114 155.243C55.2348 148.771 57.3016 142.709 59.2507 139.572C60.7746 137.119 62.2312 132.486 63.6401 128.005C65.9919 120.525 67.6904 115.577 69.7888 114.979C70.342 114.822 70.8844 114.967 71.4018 115.413C74.5004 118.081 73.6062 123.419 72.6595 129.071C71.6964 134.821 70.7005 140.766 73.7719 144.335C76.3639 147.346 77.5277 150.644 77.2311 154.135C76.6194 161.337 70.0988 166.803 69.8215 167.032C69.6729 167.155 69.4531 167.134 69.3301 166.986C69.2073 166.837 69.2281 166.617 69.3765 166.494C69.4422 166.44 75.9511 160.98 76.5357 154.072C76.8146 150.776 75.7067 147.653 73.2427 144.79C69.9579 140.974 70.9812 134.864 71.971 128.955C72.8842 123.503 73.7469 118.353 70.9463 115.942C70.5028 115.56 70.1824 115.593 69.9802 115.65C68.0867 116.19 66.0781 122.579 64.3061 128.215C62.8843 132.737 61.4143 137.413 59.8436 139.941C57.9435 142.999 55.9283 148.924 55.7091 155.267C55.5239 160.627 56.5573 168.264 62.5326 174.209C62.6693 174.346 62.6697 174.566 62.5338 174.703C62.4656 174.772 62.3759 174.806 62.2864 174.806Z" fill="#31313C"/>
<path d="M97.3069 222.826L92.4278 243.817C78.7314 239.258 70.0368 230.729 52.3885 227.622C47.745 226.804 42.484 226.36 36.3491 226.466L51.1706 194.26C51.1706 194.26 51.2759 194.395 51.4911 194.646C52.965 196.378 59.5775 203.651 72.2383 210.775C76.1417 212.972 80.0985 214.99 83.6797 216.722C87.437 218.538 90.7808 220.039 93.215 221.098C93.2527 221.114 93.2905 221.131 93.3282 221.147C95.8016 222.221 97.3069 222.826 97.3069 222.826Z" fill="#475AD7"/>
<path d="M67.4813 193.063L121.175 200.447C124.078 200.846 126.772 198.608 127.193 195.447L141.171 90.4974C141.592 87.3369 139.58 84.4511 136.678 84.0521L82.9841 76.6684C80.0814 76.2692 77.3872 78.5078 76.9661 81.6683L62.9878 186.618C62.5669 189.779 64.5787 192.664 67.4813 193.063Z" fill="#31313C"/>
<path d="M70.3434 193.364L124.745 200.845C127.452 201.217 129.965 199.129 130.357 196.182L144.414 90.6442C144.807 87.6965 142.93 85.0051 140.223 84.6329L85.8216 77.1518C83.1144 76.7796 80.6016 78.8673 80.209 81.8151L66.1525 187.352C65.7599 190.3 67.6362 192.991 70.3434 193.364Z" fill="white"/>
<path d="M74.2154 126.82L74.2122 126.834L74.2012 126.921L74.1949 126.973L74.1651 127.2V127.202C74.1729 127.199 74.1807 127.197 74.1886 127.194C74.1981 127.189 74.2091 127.186 74.2201 127.183C74.2232 127.182 74.2264 127.182 74.2279 127.18C74.2971 127.156 74.3646 127.134 74.4322 127.112L74.6632 125.365L74.2154 126.82ZM74.2154 126.82L74.2122 126.834L74.2012 126.921L74.1949 126.973L74.1651 127.2C74.1729 127.199 74.1807 127.196 74.1886 127.194C74.1981 127.189 74.2091 127.186 74.2201 127.183C74.2232 127.182 74.2264 127.182 74.2279 127.18C74.2971 127.156 74.3646 127.134 74.4322 127.112L74.6632 125.365L74.2154 126.82ZM138.897 130.137L138.868 130.356C138.874 130.349 138.88 130.342 138.886 130.335C138.907 130.313 138.926 130.291 138.946 130.269C138.965 130.247 138.985 130.225 139.006 130.203C139.021 130.186 139.039 130.167 139.056 130.15C139.076 130.128 139.097 130.106 139.119 130.085C139.124 130.079 139.13 130.073 139.136 130.067L139.144 130.059C139.062 130.085 138.979 130.112 138.897 130.137ZM137.86 140.798C137.849 140.784 137.84 140.768 137.829 140.754C137.808 140.727 137.789 140.7 137.772 140.672C137.766 140.663 137.761 140.655 137.755 140.645C137.706 140.575 137.661 140.502 137.617 140.428C137.591 140.388 137.566 140.344 137.543 140.301L136.796 145.913L136.946 146.081C136.957 146.045 136.968 146.009 136.979 145.974C136.988 145.938 137.001 145.903 137.012 145.869C137.035 145.795 137.06 145.719 137.085 145.647C137.087 145.644 137.087 145.642 137.089 145.639C137.089 145.638 137.089 145.638 137.09 145.636C137.118 145.553 137.148 145.471 137.18 145.391C137.205 145.322 137.232 145.254 137.26 145.188C137.282 145.135 137.304 145.081 137.327 145.028C137.34 144.996 137.354 144.965 137.368 144.935C137.401 144.861 137.434 144.791 137.469 144.72C137.469 144.718 137.469 144.718 137.469 144.718L137.97 140.947V140.946C137.933 140.897 137.895 140.848 137.86 140.798ZM138.897 130.137L138.868 130.356C138.874 130.349 138.88 130.342 138.886 130.335C138.905 130.313 138.926 130.291 138.946 130.269C138.965 130.247 138.985 130.225 139.006 130.203C139.021 130.186 139.039 130.167 139.056 130.15C139.076 130.128 139.097 130.106 139.119 130.085C139.124 130.079 139.13 130.073 139.136 130.067L139.144 130.059C139.062 130.085 138.979 130.112 138.897 130.137ZM137.829 140.754C137.808 140.727 137.789 140.7 137.772 140.672C137.766 140.663 137.761 140.655 137.755 140.645C137.706 140.575 137.661 140.502 137.617 140.428C137.591 140.388 137.566 140.344 137.543 140.301L136.796 145.913L136.946 146.081C136.955 146.045 136.966 146.009 136.979 145.974C136.988 145.938 137.001 145.903 137.012 145.869C137.035 145.793 137.06 145.719 137.086 145.647C137.087 145.644 137.087 145.642 137.089 145.639C137.089 145.638 137.089 145.638 137.09 145.636C137.119 145.553 137.148 145.471 137.18 145.391C137.205 145.322 137.232 145.254 137.26 145.188C137.282 145.133 137.304 145.08 137.327 145.028C137.34 144.996 137.354 144.967 137.368 144.935C137.401 144.861 137.434 144.791 137.469 144.72C137.469 144.718 137.469 144.718 137.469 144.718L137.97 140.947V140.946C137.932 140.897 137.895 140.848 137.86 140.798C137.849 140.784 137.84 140.768 137.829 140.754ZM140.26 84.3577L85.858 76.8762C85.4069 76.8134 84.9591 76.818 84.5254 76.8794H84.5222C84.5207 76.8794 84.5207 76.8794 84.5207 76.8794C84.5207 76.8794 84.5207 76.8794 84.5192 76.8809H84.5177C82.2266 77.2141 80.3033 79.1799 79.9559 81.7805L76.5489 107.368L76.4924 107.784L75.0278 118.784L74.4149 123.383L74.4134 123.39V123.399L73.8949 127.292V127.293L73.7597 128.3L73.7565 128.316L72.5026 137.74L71.9652 141.777L71.9212 142.105L71.7437 143.438C71.7437 143.438 71.7437 143.438 71.7437 143.439L69.3929 161.087L69.231 162.305L68.263 169.573L67.647 174.199L67.5668 174.806L65.8995 187.317C65.8508 187.688 65.835 188.054 65.854 188.412C65.8917 189.272 66.1117 190.088 66.4779 190.81C67.0326 191.909 67.922 192.79 69.022 193.274H69.0235C69.025 193.274 69.0267 193.276 69.0282 193.276H69.0297L69.0312 193.277C69.4319 193.453 69.8563 193.576 70.3056 193.637L99.8056 197.693L100.443 197.781L122.724 200.845L124.709 201.119C127.55 201.51 130.198 199.31 130.61 196.214L131.075 192.723V192.721L131.389 190.359L131.688 188.117L131.724 187.845L131.79 187.355L132.368 183.013V183.012L134.309 168.44L134.904 163.966L135.58 158.9L136.483 152.116V152.115L136.625 151.051L137.242 146.42L137.469 144.72C137.469 144.718 137.469 144.718 137.469 144.718L137.97 140.947V140.945L139.433 129.966L139.459 129.763L139.824 127.026L140.718 120.311L141.582 113.829L142.241 108.882L144.107 94.8686L144.665 90.6776C145.079 87.5837 143.103 84.7474 140.26 84.3577ZM144.162 90.6088L143.572 95.0307L141.646 109.494V109.495L141.028 114.136V114.137L140.274 119.804V119.805L139.367 126.611L138.898 130.137L138.868 130.356V130.357L137.543 140.301L136.797 145.912L136.126 150.947L135.101 158.641L135.099 158.647L134.472 163.353L133.858 167.967L131.935 182.41L131.399 186.436C131.399 186.437 131.399 186.437 131.399 186.437L131.21 187.85L131.188 188.013L130.876 190.366L130.607 192.379L130.106 196.145C129.733 198.938 127.346 200.922 124.782 200.569L123.08 200.334H123.077L122.126 200.204L100.607 197.245L99.9584 197.156H99.9569L70.3799 193.087C68.9593 192.893 67.7778 192.02 67.0721 190.806C66.6587 190.099 66.4073 189.277 66.3633 188.405C66.346 188.071 66.3587 187.73 66.4042 187.386L68.0668 174.909L68.169 174.141V174.14L68.964 168.17V168.168L69.7292 162.428L69.8786 161.298L72.3032 143.103V143.101L72.3252 142.935V142.933L72.3487 142.751V142.75L73.0025 137.844L74.4324 127.114V127.113L74.6634 125.365L74.6666 125.353L75.5513 118.698L75.5544 118.679L75.567 118.599L77.0111 107.748L77.0724 107.292L80.4603 81.85C80.8326 79.0576 83.2213 77.073 85.7858 77.4265L138.478 84.6723H138.484L140.186 84.908C142.751 85.2597 144.534 87.8179 144.162 90.6088ZM137.86 140.798C137.849 140.784 137.84 140.768 137.829 140.754C137.808 140.727 137.789 140.7 137.772 140.672C137.766 140.663 137.761 140.655 137.755 140.645C137.706 140.575 137.661 140.502 137.617 140.428C137.591 140.388 137.566 140.344 137.543 140.301L136.796 145.913L136.946 146.081C136.957 146.045 136.968 146.009 136.979 145.974C136.988 145.938 137.001 145.903 137.012 145.869C137.035 145.795 137.06 145.719 137.085 145.647C137.087 145.644 137.087 145.642 137.089 145.639C137.089 145.638 137.089 145.638 137.09 145.636C137.118 145.553 137.148 145.471 137.18 145.391C137.205 145.322 137.232 145.254 137.26 145.188C137.282 145.135 137.304 145.081 137.327 145.028C137.34 144.996 137.354 144.965 137.368 144.935C137.401 144.861 137.434 144.791 137.469 144.72C137.469 144.718 137.469 144.718 137.469 144.718L137.97 140.947V140.946C137.933 140.897 137.895 140.848 137.86 140.798ZM138.897 130.137L138.868 130.356C138.874 130.349 138.88 130.342 138.886 130.335C138.907 130.313 138.926 130.291 138.946 130.269C138.965 130.247 138.985 130.225 139.006 130.203C139.021 130.186 139.039 130.167 139.056 130.15C139.076 130.128 139.097 130.106 139.119 130.085C139.124 130.079 139.13 130.073 139.136 130.067L139.144 130.059C139.062 130.085 138.979 130.112 138.897 130.137ZM137.86 140.798C137.849 140.784 137.84 140.768 137.829 140.754C137.808 140.727 137.789 140.7 137.772 140.672C137.766 140.663 137.761 140.655 137.755 140.645C137.706 140.575 137.661 140.502 137.617 140.428C137.591 140.388 137.566 140.344 137.543 140.301L136.796 145.913L136.946 146.081C136.957 146.045 136.968 146.009 136.979 145.974C136.988 145.938 137.001 145.903 137.012 145.869C137.035 145.795 137.06 145.719 137.085 145.647C137.087 145.644 137.087 145.642 137.089 145.639C137.089 145.638 137.089 145.638 137.09 145.636C137.118 145.553 137.148 145.471 137.18 145.391C137.205 145.322 137.232 145.254 137.26 145.188C137.282 145.135 137.304 145.081 137.327 145.028C137.34 144.996 137.354 144.965 137.368 144.935C137.401 144.861 137.434 144.791 137.469 144.72C137.469 144.718 137.469 144.718 137.469 144.718L137.97 140.947V140.946C137.933 140.897 137.895 140.848 137.86 140.798ZM138.897 130.137L138.868 130.356C138.874 130.349 138.88 130.342 138.886 130.335C138.907 130.313 138.926 130.291 138.946 130.269C138.965 130.247 138.985 130.225 139.006 130.203C139.021 130.186 139.039 130.167 139.056 130.15C139.076 130.128 139.097 130.106 139.119 130.085C139.124 130.079 139.13 130.073 139.136 130.067L139.144 130.059C139.062 130.085 138.979 130.112 138.897 130.137ZM74.2154 126.82L74.2122 126.834L74.2012 126.921L74.1949 126.973L74.1651 127.2C74.1729 127.199 74.1807 127.196 74.1886 127.194C74.1981 127.189 74.2091 127.186 74.2201 127.183C74.2232 127.182 74.2264 127.182 74.2279 127.18C74.2971 127.156 74.3646 127.134 74.4322 127.112L74.6632 125.365L74.2154 126.82Z" fill="#31313B"/>
<path d="M124.902 191.687C124.784 191.687 124.666 191.679 124.549 191.663L72.9313 184.566C71.4163 184.358 70.3614 182.856 70.5799 181.218L80.8937 103.77L83.3978 84.9706C83.5079 84.1452 83.9353 83.3945 84.5708 82.9107C85.1488 82.4707 85.8502 82.2809 86.5453 82.3767L138.163 89.4739C139.677 89.6823 140.732 91.1841 140.514 92.822L133.195 147.775L127.694 189.069C127.585 189.894 127.159 190.645 126.524 191.129C126.044 191.494 125.478 191.687 124.902 191.687ZM86.1928 82.8663C85.7284 82.8663 85.2714 83.0229 84.8818 83.3194C84.3544 83.7212 83.999 84.3476 83.9068 85.0384L81.4027 103.837L71.089 181.286C70.9078 182.644 71.7656 183.887 73.0011 184.057L124.618 191.154C125.178 191.231 125.744 191.077 126.212 190.72C126.739 190.318 127.093 189.692 127.185 189.002L132.685 147.707L140.004 92.7539C140.185 91.3959 139.328 90.1526 138.092 89.9826L86.4749 82.8854C86.3811 82.8726 86.2869 82.8663 86.1928 82.8663Z" fill="#31313C"/>
<path d="M113.593 84.0791C113.671 83.4914 113.297 82.9549 112.758 82.8806C112.218 82.8065 111.717 83.2225 111.639 83.8103C111.561 84.398 111.935 84.9344 112.474 85.0087C113.014 85.083 113.515 84.6668 113.593 84.0791Z" fill="#31313B"/>
<path d="M93.0001 193.404L102.893 194.765C103.559 194.856 104.184 194.338 104.28 193.612L104.427 192.513C104.523 191.788 104.057 191.119 103.391 191.027L93.4978 189.667C92.8316 189.575 92.2074 190.094 92.1107 190.82L91.9644 191.919C91.8676 192.644 92.3337 193.313 93.0001 193.404Z" fill="white"/>
<path d="M103.428 190.752L102.619 190.641L102.358 190.605L101.823 190.531H101.822L93.5343 189.392C92.7628 189.285 92.0431 189.851 91.8766 190.669C91.8702 190.707 91.8624 190.746 91.8577 190.786L91.7116 191.884C91.5952 192.762 92.1563 193.569 92.9625 193.678L100.639 194.735L101.343 194.83L102.856 195.039C103.664 195.151 104.415 194.526 104.533 193.647L104.679 192.547C104.795 191.669 104.236 190.864 103.428 190.752ZM104.174 192.478L104.028 193.576C103.951 194.153 103.458 194.562 102.93 194.489L101.506 194.293L100.791 194.196L93.0362 193.129C92.5066 193.056 92.1404 192.528 92.2159 191.953L92.3621 190.855C92.3716 190.789 92.3841 190.726 92.4029 190.666C92.5506 190.192 92.9922 189.876 93.4605 189.942L98.4733 190.63L101.671 191.07L102.455 191.177L103.354 191.301C103.884 191.375 104.25 191.903 104.174 192.478Z" fill="#31313B"/>
<g opacity="0.2">
<path d="M140.259 92.788L132.94 147.741L81.1484 103.804L83.6525 85.0045C83.8526 83.5035 85.1328 82.4417 86.5103 82.6311L138.127 89.7283C139.505 89.9178 140.459 91.287 140.259 92.788Z" fill="#A2D2EC"/>
</g>
<g opacity="0.2">
<path d="M77.5017 131.188L70.8335 181.252C70.6338 182.751 71.5892 184.122 72.9663 184.311L124.584 191.409C125.962 191.599 127.24 190.536 127.44 189.036L129.753 171.67L77.5017 131.188Z" fill="#A2D2EC"/>
</g>
<path d="M145.261 155.544C147.578 154.651 151.126 149.949 147.606 144.165C146.354 142.108 137.619 137.944 136.432 148.7C135.465 157.455 142.045 156.783 145.261 155.544Z" fill="white"/>
<path d="M141.57 156.461C140.31 156.461 139.083 156.174 138.121 155.432C136.516 154.196 135.884 151.924 136.242 148.679C136.811 143.526 139.089 141.965 140.901 141.563C143.776 140.925 147.028 142.847 147.77 144.065C149.706 147.246 149.433 149.909 148.863 151.583C148.111 153.792 146.547 155.253 145.33 155.722C144.211 156.154 142.872 156.461 141.57 156.461ZM142.117 141.817C141.737 141.817 141.357 141.854 140.983 141.937C138.561 142.475 137.053 144.821 136.622 148.721C136.28 151.824 136.862 153.979 138.355 155.129C139.555 156.054 141.982 156.602 145.192 155.365C146.289 154.943 147.792 153.54 148.5 151.459C149.044 149.863 149.301 147.319 147.442 144.265C146.846 143.284 144.493 141.817 142.117 141.817Z" fill="#31313B"/>
<path d="M145.903 153.119C145.874 153.119 145.844 153.112 145.816 153.098C145.722 153.05 145.685 152.934 145.733 152.84C148.123 148.183 146.234 144.598 146.214 144.562C146.164 144.469 146.198 144.353 146.291 144.302C146.384 144.252 146.5 144.286 146.551 144.379C146.572 144.418 147.066 145.343 147.257 146.875C147.432 148.283 147.369 150.491 146.074 153.015C146.04 153.081 145.973 153.119 145.903 153.119Z" fill="#31313B"/>
<path d="M95.107 91.3473L94.6953 91.2987C94.3245 91.2531 93.9851 91.517 93.9411 91.8895L93.4587 95.8651C93.4241 96.148 93.0407 96.2076 92.9229 95.9484L90.7402 91.1463C90.6412 90.931 90.4385 90.7818 90.2044 90.7534L89.491 90.6669C89.1201 90.6214 88.7806 90.887 88.7367 91.2578L87.8615 98.4736C87.816 98.846 88.0815 99.1838 88.4524 99.2295L88.8704 99.2798C89.2428 99.3253 89.5806 99.0598 89.6246 98.6875L90.1588 94.2843C90.1792 94.1257 90.393 94.0927 90.459 94.2388L92.8208 99.4307C92.9182 99.646 93.121 99.7952 93.3567 99.8235L94.0686 99.91C94.441 99.9555 94.7788 99.69 94.8245 99.3192L95.6997 92.1034C95.7434 91.7307 95.4794 91.3928 95.107 91.3473Z" fill="#31313C"/>
<path d="M102.376 92.229L97.9951 91.6978C97.6227 91.6523 97.2847 91.9178 97.2392 92.2902L96.364 99.506C96.3185 99.8769 96.584 100.215 96.9563 100.26L101.348 100.793C101.721 100.838 102.059 100.573 102.104 100.202L102.112 100.131C102.158 99.759 101.892 99.4212 101.521 99.3755L98.8923 99.0565C98.5199 99.0125 98.2559 98.6746 98.2999 98.3023L98.4146 97.3562C98.4601 96.9838 98.798 96.7182 99.1705 96.7638L101.21 97.0105C101.582 97.056 101.92 96.7922 101.966 96.4197L101.971 96.3851C102.015 96.0128 101.751 95.6749 101.378 95.6293L99.3387 95.3809C98.9663 95.3369 98.7006 94.9991 98.7463 94.6267L98.8311 93.9322C98.8751 93.5613 99.2145 93.2958 99.5853 93.3413L102.202 93.6586C102.574 93.7042 102.912 93.4386 102.958 93.0663L102.967 92.9846C103.013 92.6124 102.747 92.2745 102.376 92.229Z" fill="#31313C"/>
<path d="M112.838 93.4987L112.476 93.4547C112.152 93.4154 111.846 93.6119 111.747 93.9229L110.631 97.435C110.495 97.8687 109.863 97.8043 109.814 97.3533L109.417 93.6134C109.384 93.2991 109.139 93.0492 108.824 93.0115L108.402 92.9612C108.089 92.9219 107.79 93.1057 107.682 93.4027L106.398 96.9321C106.243 97.3595 105.614 97.2715 105.583 96.8175L105.334 93.1436C105.312 92.8182 105.062 92.5558 104.739 92.5165L104.377 92.4725C103.947 92.4207 103.578 92.7805 103.62 93.2126L104.346 100.622C104.377 100.938 104.624 101.191 104.94 101.228L105.646 101.315C105.957 101.352 106.252 101.173 106.362 100.879L107.283 98.4296C107.533 97.7649 108.509 97.8827 108.592 98.5883L108.9 101.187C108.936 101.499 109.181 101.744 109.492 101.781L110.198 101.866C110.514 101.906 110.814 101.719 110.919 101.418L113.396 94.3975C113.54 93.9889 113.268 93.5506 112.838 93.4987Z" fill="#31313C"/>
<path d="M116.155 95.8226C116.227 95.7079 116.323 95.6121 116.446 95.5351C116.57 95.4596 116.719 95.4062 116.895 95.3747C117.072 95.3449 117.277 95.3432 117.508 95.3716C117.747 95.4014 117.951 95.4564 118.119 95.5381C118.289 95.6214 118.425 95.7234 118.529 95.8476C118.635 95.9718 118.705 96.1131 118.743 96.2735C118.746 96.2845 118.749 96.294 118.751 96.305C118.812 96.5942 119.041 96.8172 119.334 96.8533L119.742 96.902C120.201 96.957 120.594 96.5453 120.489 96.0943C120.475 96.033 120.457 95.9701 120.439 95.9089C120.329 95.5679 120.151 95.2631 119.904 94.9944C119.659 94.7257 119.349 94.5025 118.977 94.3233C118.605 94.1458 118.182 94.028 117.707 93.9698C117.245 93.9133 116.813 93.9195 116.413 93.9887C116.013 94.0578 115.66 94.1788 115.355 94.3532C115.049 94.526 114.8 94.7524 114.61 95.0289C114.418 95.3071 114.302 95.6229 114.258 95.9796C114.214 96.352 114.25 96.6867 114.366 96.9837C114.484 97.2807 114.66 97.5509 114.895 97.7961C115.13 98.0428 115.412 98.2643 115.738 98.464C116.067 98.662 116.419 98.8473 116.796 99.0218C117.127 99.1727 117.396 99.311 117.602 99.435C117.808 99.5592 117.967 99.6802 118.078 99.7964C118.188 99.9142 118.259 100.035 118.287 100.159C118.316 100.285 118.322 100.422 118.303 100.57C118.286 100.708 118.245 100.832 118.177 100.945C118.11 101.06 118.015 101.152 117.896 101.225C117.775 101.299 117.627 101.349 117.453 101.377C117.278 101.405 117.077 101.405 116.851 101.379C116.595 101.347 116.367 101.294 116.166 101.218C115.965 101.141 115.796 101.039 115.663 100.909C115.529 100.78 115.432 100.62 115.372 100.429C115.355 100.374 115.341 100.316 115.331 100.255C115.283 99.9549 115.045 99.7207 114.744 99.6847L114.338 99.636C113.886 99.581 113.493 99.9834 113.589 100.428C113.589 100.431 113.589 100.434 113.59 100.438C113.65 100.713 113.749 100.964 113.886 101.192C114.024 101.42 114.192 101.622 114.393 101.803C114.594 101.982 114.818 102.138 115.063 102.271C115.306 102.405 115.567 102.513 115.844 102.597C116.12 102.68 116.398 102.738 116.681 102.773C117.151 102.829 117.585 102.828 117.979 102.766C118.375 102.705 118.721 102.589 119.015 102.421C119.31 102.251 119.549 102.028 119.731 101.753C119.915 101.476 120.028 101.149 120.074 100.774C120.118 100.42 120.094 100.098 120.006 99.8042C119.92 99.5104 119.771 99.2385 119.56 98.9855C119.349 98.7342 119.079 98.4983 118.744 98.2783C118.411 98.0598 118.02 97.8493 117.572 97.6466C117.035 97.4141 116.634 97.1862 116.368 96.9615C116.103 96.7352 115.988 96.4822 116.023 96.1993C116.039 96.0631 116.083 95.9373 116.155 95.8226Z" fill="#31313C"/>
<path d="M112.939 142.88L83.0624 139.304C82.7211 139.264 82.4753 138.951 82.5162 138.609L82.5238 138.545C82.5647 138.204 82.8774 137.958 83.2187 137.999L113.095 141.575C113.436 141.615 113.682 141.928 113.641 142.269L113.633 142.334C113.593 142.675 113.28 142.921 112.939 142.88Z" fill="#31313C"/>
<path d="M111.615 155.422L81.7937 151.939C81.4344 151.897 81.1749 151.568 81.2168 151.209C81.2587 150.85 81.5869 150.59 81.9462 150.632L111.768 154.116C112.127 154.158 112.387 154.486 112.345 154.845C112.303 155.205 111.975 155.464 111.615 155.422Z" fill="#31313C"/>
<path d="M100.232 145.726L82.655 143.925C82.3674 143.896 82.1563 143.637 82.1859 143.349L82.2128 143.086C82.2422 142.799 82.5016 142.588 82.7891 142.617L100.366 144.418C100.653 144.448 100.864 144.707 100.835 144.994L100.808 145.257C100.778 145.545 100.519 145.756 100.232 145.726Z" fill="#31313C"/>
<path d="M115.065 147.526L103.774 146.174C103.415 146.131 103.156 145.803 103.199 145.443C103.242 145.084 103.571 144.826 103.93 144.869L115.221 146.22C115.58 146.263 115.839 146.592 115.796 146.951C115.753 147.31 115.424 147.569 115.065 147.526Z" fill="#31313C"/>
<path d="M124.039 111.898L112.748 110.547C112.389 110.504 112.13 110.175 112.173 109.815C112.216 109.456 112.545 109.198 112.904 109.241L124.195 110.592C124.554 110.635 124.813 110.964 124.77 111.323C124.727 111.682 124.398 111.941 124.039 111.898Z" fill="#31313C"/>
<path d="M123.157 119.268L111.866 117.916C111.507 117.874 111.248 117.545 111.291 117.185C111.334 116.826 111.663 116.568 112.022 116.611L123.313 117.962C123.672 118.005 123.931 118.334 123.888 118.693C123.845 119.052 123.516 119.311 123.157 119.268Z" fill="#31313C"/>
<path d="M129.053 116.266L112.304 114.261C111.944 114.218 111.686 113.889 111.729 113.53C111.772 113.171 112.101 112.913 112.46 112.956L129.209 114.96C129.568 115.003 129.827 115.332 129.784 115.691C129.741 116.051 129.412 116.309 129.053 116.266Z" fill="#31313C"/>
<path d="M122.235 125.851L110.944 124.499C110.585 124.456 110.326 124.127 110.369 123.768C110.412 123.409 110.741 123.15 111.1 123.193L122.391 124.545C122.75 124.588 123.009 124.917 122.966 125.276C122.923 125.635 122.594 125.894 122.235 125.851Z" fill="#31313C"/>
<path d="M121.353 133.221L110.062 131.869C109.703 131.826 109.444 131.497 109.487 131.138C109.53 130.779 109.859 130.52 110.218 130.563L121.509 131.915C121.868 131.958 122.127 132.287 122.084 132.646C122.041 133.005 121.712 133.264 121.353 133.221Z" fill="#31313C"/>
<path d="M127.248 130.219L110.499 128.214C110.14 128.171 109.881 127.842 109.924 127.483C109.967 127.124 110.296 126.865 110.655 126.908L127.405 128.913C127.764 128.956 128.022 129.285 127.979 129.644C127.936 130.003 127.607 130.262 127.248 130.219Z" fill="#31313C"/>
<path d="M98.738 157.783L81.1886 155.733C80.9016 155.699 80.6942 155.437 80.7277 155.15L80.7583 154.887C80.7919 154.6 81.0541 154.393 81.3411 154.426L98.8905 156.476C99.1775 156.51 99.3849 156.772 99.3514 157.059L99.3208 157.322C99.2872 157.609 99.025 157.816 98.738 157.783Z" fill="#31313C"/>
<path d="M113.627 159.522L102.332 158.202C101.973 158.161 101.713 157.832 101.755 157.473C101.797 157.114 102.125 156.854 102.484 156.896L113.779 158.216C114.138 158.258 114.398 158.586 114.356 158.945C114.314 159.304 113.986 159.564 113.627 159.522Z" fill="#31313C"/>
<path d="M109.705 168.073L79.9323 164.189C79.5737 164.142 79.3185 163.81 79.3654 163.452C79.4123 163.093 79.744 162.838 80.1026 162.885L109.875 166.769C110.233 166.815 110.488 167.147 110.442 167.506C110.395 167.864 110.063 168.119 109.705 168.073Z" fill="#31313C"/>
<path d="M96.8384 170.265L79.2348 167.969C78.9711 167.935 78.7837 167.691 78.818 167.427L78.8631 167.082C78.8974 166.818 79.1413 166.631 79.405 166.665L97.0086 168.961C97.2723 168.996 97.4597 169.24 97.4254 169.503L97.3803 169.849C97.346 170.112 97.1021 170.3 96.8384 170.265Z" fill="#31313C"/>
<path d="M111.661 172.199L100.384 170.728C100.026 170.681 99.7707 170.35 99.8176 169.991C99.8643 169.632 100.196 169.377 100.555 169.424L111.831 170.895C112.189 170.942 112.444 171.273 112.398 171.632C112.351 171.991 112.019 172.246 111.661 172.199Z" fill="#31313C"/>
<path d="M104.732 130.745L83.9273 128.187C83.4993 128.134 83.1949 127.745 83.2476 127.317L85.8054 106.512C85.858 106.084 86.2476 105.78 86.6756 105.832L107.481 108.39C107.908 108.443 108.213 108.832 108.16 109.26L105.602 130.065C105.55 130.493 105.16 130.797 104.732 130.745Z" fill="#FFFDFC"/>
<path d="M104.883 131.072C104.841 131.072 104.799 131.07 104.756 131.064L83.8277 128.491C83.5539 128.458 83.3096 128.32 83.1399 128.102C82.9701 127.885 82.8951 127.614 82.9288 127.34L85.5017 106.412C85.5353 106.138 85.6737 105.894 85.891 105.724C86.1083 105.554 86.3789 105.479 86.6526 105.513L107.582 108.086C108.147 108.155 108.55 108.671 108.48 109.236L105.907 130.166C105.843 130.688 105.397 131.072 104.883 131.072ZM86.5257 106.134C86.4361 106.134 86.3495 106.163 86.2778 106.219C86.1928 106.286 86.1387 106.381 86.1256 106.488L83.5527 127.417C83.5396 127.524 83.5688 127.63 83.6353 127.715C83.7017 127.8 83.7973 127.854 83.9044 127.868L104.833 130.441C105.055 130.467 105.256 130.31 105.284 130.089L107.857 109.16C107.884 108.939 107.726 108.737 107.505 108.71L86.576 106.137C86.559 106.135 86.5423 106.134 86.5257 106.134Z" fill="#31313C"/>
<path d="M86.8098 125.373L102.78 127.073C103.355 127.134 103.783 126.554 103.554 126.023L100.869 119.78C100.694 119.373 100.207 119.203 99.817 119.414L96.0643 121.434C95.6763 121.642 95.1927 121.476 95.0147 121.073L92.4317 115.223C92.1772 114.647 91.3702 114.617 91.0735 115.173L86.223 124.265C85.9709 124.738 86.2769 125.316 86.8098 125.373Z" fill="#475AD7"/>
<path d="M100.264 113.669C100.448 112.889 99.9656 112.108 99.1861 111.924C98.4067 111.74 97.6257 112.223 97.4416 113.002C97.2576 113.782 97.7402 114.563 98.5197 114.747C99.2991 114.931 100.08 114.448 100.264 113.669Z" fill="#475AD7"/>
<path d="M166.86 14.6359L175.272 12.8081C175.272 12.8081 181.341 19.1739 179.281 26.5821L169.36 29.58C169.36 29.58 168.812 19.773 166.86 14.6359Z" fill="#475AD7"/>
<path d="M170.068 22.3038C169.299 17.9247 166.843 14.0192 163.221 11.4406C163.084 11.3426 162.943 11.2445 162.799 11.1462C160.031 9.25309 157.041 2.83806 155.167 4.99147C153.293 7.14488 158.523 13.6319 157.128 15.3788C156.243 16.4871 140.806 17.2451 146.256 23.5406C146.256 23.5406 145.328 25.7733 147.505 27.6193C147.505 27.6193 146.924 29.9475 148.919 31.5322C148.919 31.5322 149.491 34.9762 152.247 34.6451C156.169 34.1739 160.17 33.2165 169.36 29.58C170.883 28.9772 170.606 25.3622 170.068 22.3038Z" fill="white"/>
<path d="M151.606 34.908C149.458 34.7117 148.804 32.2013 148.689 31.6712C146.948 30.231 147.131 28.2775 147.229 27.7133C145.399 26.0729 145.805 24.1437 145.971 23.5956C144.975 22.4043 144.635 21.3037 144.961 20.3232C145.788 17.8366 150.576 16.7896 154.073 16.0251C155.331 15.7501 156.756 15.4383 156.93 15.2213C157.487 14.5239 156.687 12.6594 155.914 10.8562C154.911 8.51467 153.873 6.09363 154.976 4.82585C155.285 4.47021 155.646 4.2942 156.049 4.30279C157.213 4.32735 158.513 5.95349 159.885 7.67471C160.897 8.9434 161.944 10.2555 162.942 10.938C163.087 11.0371 163.229 11.1361 163.367 11.2351C167.062 13.8657 169.53 17.7813 170.317 22.2605C171.103 26.7353 170.812 29.2772 169.452 29.8152C160.295 33.4391 156.22 34.4224 152.276 34.8961C152.039 34.9245 151.815 34.9272 151.606 34.908ZM156.098 4.81108C156.077 4.80927 156.057 4.80807 156.038 4.80776C155.789 4.80249 155.566 4.91687 155.357 5.15737C154.462 6.18586 155.48 8.56124 156.379 10.6569C157.286 12.7742 158.07 14.6028 157.325 15.5364C157.052 15.8783 156.111 16.0965 154.18 16.5186C150.993 17.2156 146.177 18.2686 145.441 20.4826C145.165 21.3123 145.503 22.2855 146.446 23.3753L146.549 23.4933L146.489 23.6375C146.454 23.7215 145.665 25.7281 147.668 27.4266L147.788 27.5281L147.75 27.6805C147.728 27.7688 147.238 29.8741 149.076 31.3343L149.152 31.3948L149.168 31.4906C149.169 31.4989 149.312 32.3256 149.773 33.0951C150.364 34.081 151.186 34.5174 152.216 34.3943C156.119 33.9254 160.16 32.9489 169.266 29.345C170.341 28.9199 170.537 26.4347 169.819 22.3474C169.055 17.9999 166.66 14.1994 163.074 11.6462C162.938 11.5492 162.799 11.452 162.656 11.3546C161.596 10.6294 160.525 9.28728 159.49 7.9892C158.277 6.46795 157.023 4.89577 156.098 4.81108Z" fill="#080435"/>
<path d="M170.31 16.1028C170.25 15.8303 170.421 15.5606 170.694 15.5001C170.966 15.4397 171.236 15.6116 171.297 15.8839C171.357 16.1564 171.185 16.4261 170.913 16.4866C170.64 16.547 170.37 16.3752 170.31 16.1028Z" fill="#080435"/>
<path d="M111.911 30.9438C111.911 18.2905 100.597 8.03296 86.6418 8.03296C72.6862 8.03296 61.373 18.2905 61.373 30.9438C61.373 43.5971 72.6862 53.8546 86.6418 53.8546C89.4622 53.8546 92.1742 53.4353 94.7072 52.6624C96.8419 55.0028 100.324 57.5567 105.859 58.8397C105.859 58.8397 102.251 54.7908 101.079 49.7475C107.626 45.6076 111.911 38.73 111.911 30.9438Z" fill="#475AD7"/>
<path d="M50.3857 45.0159C50.3857 34.6794 59.6275 26.3 71.0279 26.3C82.4282 26.3 91.6701 34.6795 91.6701 45.0159C91.6701 55.3523 82.4282 63.7319 71.0279 63.7319C68.7239 63.7319 66.5085 63.3893 64.4393 62.7579C62.6953 64.6698 59.851 66.7561 55.3291 67.8042C55.3291 67.8042 58.277 64.4966 59.2342 60.3768C53.8859 56.9947 50.3857 51.3764 50.3857 45.0159Z" fill="white"/>
<path d="M54.6905 68.1835L55.1616 67.6544C55.1904 67.6221 58.0091 64.423 58.9785 60.4803C53.4542 56.9276 50.1611 51.1581 50.1611 45.0158C50.1611 34.5717 59.5222 26.0747 71.0284 26.0747C82.5346 26.0747 91.8959 34.5717 91.8959 45.0158C91.8959 55.4599 82.5348 63.957 71.0284 63.957C68.8001 63.957 66.6078 63.6397 64.5099 63.0141C62.2353 65.4613 59.1646 67.1464 55.3804 68.0234L54.6905 68.1835ZM71.0286 26.5251C59.7707 26.5251 50.6117 34.8201 50.6117 45.0158C50.6117 51.0531 53.8803 56.7243 59.3553 60.1863L59.4904 60.2717L59.4543 60.4276C58.718 63.5963 56.7983 66.3153 55.9325 67.423C59.3794 66.5165 62.183 64.8979 64.2736 62.6058L64.3696 62.5006L64.5057 62.5422C66.6019 63.1819 68.7967 63.5065 71.0286 63.5065C82.2866 63.5065 91.4454 55.2116 91.4454 45.0157C91.4454 34.8201 82.2866 26.5251 71.0286 26.5251Z" fill="#31313B"/>
<path d="M299.432 102.115L257.391 74.8502L242.823 97.3134L284.865 124.578L299.432 102.115Z" fill="white"/>
<path d="M284.956 125.003L284.702 124.838L242.406 97.4085L242.571 97.1547L257.303 74.4375L299.853 102.032L299.688 102.286L284.956 125.003ZM243.243 97.23L284.777 124.166L299.016 102.21L257.482 75.2742L243.243 97.23Z" fill="#31313C"/>
<path d="M284.588 124.702L272.922 96.9566L242.831 97.6216L242.818 97.0169L273.32 96.3427L285.145 124.467L284.588 124.702Z" fill="#31313C"/>
<path d="M257.401 74.9644L269.742 101.981L299.443 102.229L257.401 74.9644Z" fill="white"/>
<path d="M299.434 102.423C299.433 102.423 299.432 102.423 299.431 102.423L269.731 102.175C269.613 102.174 269.507 102.105 269.458 101.998L257.117 74.9814C257.061 74.859 257.092 74.7145 257.194 74.6268C257.296 74.5389 257.444 74.529 257.556 74.6019L299.598 101.867C299.711 101.94 299.762 102.079 299.723 102.208C299.685 102.336 299.567 102.423 299.434 102.423ZM269.928 101.571L298.398 101.81L258.098 75.6744L269.928 101.571Z" fill="#31313C"/>
<path d="M235.987 56.2905L234.36 55.3157C233.689 54.9136 233.461 53.6668 233.852 52.545L240.31 34.0187C240.701 32.897 241.57 32.3081 242.24 32.7103L243.867 33.6851C244.538 34.0872 244.767 35.334 244.375 36.4558L237.917 54.982C237.526 56.1036 236.658 56.6926 235.987 56.2905Z" fill="#475AD7"/>
<path d="M250.834 37.2497L224.98 28.8175C222.154 27.8589 217.174 22.5619 219.72 16.1234C221.95 10.4834 227.591 9.685 230.418 10.6436L255.023 18.7536C257.85 19.7121 244.15 17.9228 243.078 21.0833L240.902 27.5009C239.83 30.6614 253.66 38.2083 250.834 37.2497Z" fill="#475AD7"/>
<path d="M240.486 33.7407L234.272 31.6333C229.632 30.0597 227.146 25.0227 228.72 20.3828L229.079 19.3231C230.653 14.6831 235.69 12.1974 240.33 13.771L246.544 15.8784L240.486 33.7407Z" fill="#31313C"/>
<path d="M281.573 10.5001C281.573 10.5001 270.18 14.9471 260.195 16.4218C251.871 17.6511 246.216 15.6352 246.216 15.6352C243.029 15.9167 239.338 16.3882 237.07 22.7645C235.194 28.0389 237.455 31.4066 240.486 33.7408C240.486 33.7408 247.102 36.0859 254.29 41.8802C257.477 44.4503 266.088 55.913 266.088 55.913L281.573 10.5001Z" fill="#475AD7"/>
<path d="M287.325 37.7981C291.799 24.6062 290.806 12.3449 285.107 10.4118C279.407 8.47868 271.16 17.6058 266.686 30.7977C262.211 43.9897 263.204 56.2509 268.904 58.184C274.603 60.1171 282.851 50.9901 287.325 37.7981Z" fill="#333647"/>
<path d="M277.639 30.4173L280.487 32.7633C281.476 33.5773 281.857 34.9179 281.446 36.1304C280.973 37.5241 279.581 38.389 278.122 38.1946L274.636 37.73C272.712 37.4736 271.502 35.5246 272.125 33.687L272.763 31.8056C273.456 29.7646 275.976 29.047 277.639 30.4173Z" fill="#F3F4F6"/>
<path d="M110.07 49.9736C112.855 53.1904 117.193 54.4166 121.338 54.1143C125.51 53.8101 130.074 52.0061 132.59 48.5198C133.683 47.0051 134.47 44.9796 133.81 43.1262C133.233 41.5048 131.468 40.9154 130.061 41.9681C128.24 43.3321 128.493 46.1325 129.134 48.0462C129.75 49.8829 130.983 51.6626 132.774 52.509C135.229 53.6698 137.736 52.4694 139.727 50.9546C141.987 49.2353 143.885 47.0911 145.356 44.6648C145.487 44.4479 145.148 44.2504 145.017 44.4665C143.893 46.3206 142.52 48.007 140.911 49.4627C139.254 50.963 137.122 52.6636 134.759 52.5979C132.817 52.5438 131.228 51.1965 130.271 49.5917C129.259 47.8937 128.611 45.4573 129.36 43.5483C129.779 42.4809 130.915 41.521 132.126 41.8797C132.993 42.1362 133.44 42.9929 133.591 43.8272C133.942 45.7641 132.862 47.7261 131.603 49.1169C129.067 51.9175 125.15 53.421 121.442 53.7138C117.359 54.0363 113.095 52.869 110.348 49.6957C110.182 49.5043 109.905 49.7833 110.07 49.9736Z" fill="#31313B"/>
<path d="M175.845 6.3515C180.195 2.86023 185.639 -0.813974 191.514 0.730333C192.84 1.07889 194.264 1.70713 195.169 2.77524C196.026 3.7867 196.324 6.14325 194.531 6.38797C193.934 6.46935 193.237 6.2103 193.034 5.59683C192.738 4.7002 193.647 3.89188 194.333 3.50475C195.618 2.78037 197.206 2.60601 198.653 2.73049C202.038 3.02178 204.911 5.03595 207.527 7.04183C207.728 7.19554 207.924 6.85452 207.726 6.70262C204.832 4.48351 201.578 2.27404 197.78 2.30146C196.284 2.31216 194.52 2.64957 193.388 3.70382C192.609 4.42941 192.195 5.72778 193.206 6.45789C194.071 7.08222 195.312 6.82287 195.886 5.94252C196.625 4.80765 196.223 3.36204 195.375 2.4181C193.191 -0.0152994 189.218 -0.32829 186.214 0.248264C182.154 1.0275 178.723 3.54107 175.567 6.07363C175.37 6.232 175.65 6.50837 175.845 6.3515Z" fill="#31313B"/>
<path d="M39.6821 68.5101C39.5896 63.7839 40.9136 59.1376 43.4809 55.1687C43.6187 54.9558 43.2787 54.7587 43.1417 54.9704C40.5393 58.9935 39.1955 63.7195 39.2893 68.5101C39.2942 68.7626 39.6871 68.7634 39.6821 68.5101Z" fill="#31313B"/>
<path d="M298.848 36.182C301.147 37.5845 302.832 39.7058 304.181 42.0031C305.591 44.4026 306.733 46.9745 307.67 49.5925C309.564 54.8887 310.563 60.5005 310.613 66.125C310.641 69.3576 310.353 72.5841 309.757 75.7612C309.71 76.0084 310.089 76.1141 310.135 75.8656C312.257 64.5584 310.469 52.3823 304.815 42.3175C303.383 39.7684 301.574 37.3847 299.046 35.8428C298.829 35.7108 298.632 36.0505 298.848 36.182Z" fill="#31313B"/>
<path d="M127.292 74.0775C127.125 72.3224 126.959 70.5673 126.792 68.8121C126.748 68.3471 126.015 68.3426 126.06 68.8121C126.227 70.5673 126.393 72.3224 126.56 74.0775C126.604 74.5424 127.336 74.5471 127.292 74.0775Z" fill="#31313C"/>
<path d="M132.926 74.0714C134.453 70.9185 135.98 67.7655 137.507 64.6126C137.712 64.1903 137.081 63.8187 136.875 64.243C135.348 67.396 133.821 70.549 132.294 73.7019C132.089 74.1242 132.72 74.4958 132.926 74.0714Z" fill="#31313C"/>
<path d="M140.427 76.1413C140.793 75.9228 141.16 75.7043 141.527 75.4858C141.931 75.2448 141.563 74.6116 141.157 74.8536C140.791 75.0721 140.424 75.2906 140.057 75.5091C139.653 75.7501 140.021 76.3833 140.427 76.1413Z" fill="#31313C"/>
<path d="M207.508 41.071C206.878 39.2307 206.249 37.3904 205.619 35.55C205.468 35.1067 204.76 35.2971 204.913 35.7447C205.543 37.585 206.172 39.4252 206.802 41.2657C206.953 41.7088 207.661 41.5185 207.508 41.071Z" fill="#31313C"/>
<path d="M212.192 39.6019C212.279 36.6007 212.366 33.5994 212.453 30.5982C212.467 30.1269 211.735 30.1273 211.721 30.5982C211.634 33.5994 211.547 36.6007 211.46 39.6019C211.446 40.0732 212.178 40.0728 212.192 39.6019Z" fill="#31313C"/>
<path d="M217.477 40.3596C217.696 39.7006 217.916 39.0417 218.135 38.3828C218.284 37.9348 217.578 37.7427 217.429 38.1881C217.21 38.8471 216.99 39.5061 216.771 40.1649C216.622 40.6131 217.329 40.8052 217.477 40.3596Z" fill="#31313C"/>
</svg>
